<?xml version="1.0" encoding="utf-8"?>
<!-- Generator: Adobe Illustrator 25.2.0, SVG Export Plug-In . SVG Version: 6.00 Build 0)  -->
<svg version="1.1" id="Layer_1" xmlns="http://www.w3.org/2000/svg" xmlns:xlink="http://www.w3.org/1999/xlink" x="0px" y="0px"
	 viewBox="0 0 480.5 350" style="enable-background:new 0 0 480.5 350;" xml:space="preserve">
<style type="text/css">
	.st0{fill:#EDCDB0;}
	.st1{fill:#42526E;}
	.st2{opacity:7.000000e-02;fill:url(#SVGID_1_);}
	.st3{fill:#FF6A45;}
	.st4{fill:#00C9E8;}
	.st5{fill:#6A4EC6;}
	.st6{fill:#00DC9E;}
	.st7{fill:#35F5BB;}
	.st8{fill:#304566;}
	.st9{fill:#FDC204;}
	.st10{opacity:0.1;fill:url(#SVGID_2_);}
	.st11{opacity:0.1;fill:url(#SVGID_3_);}
	.st12{fill:#FDC100;}
	.st13{fill:none;stroke:#304566;stroke-width:2;stroke-miterlimit:10;}
	.st14{fill:none;stroke:#BFC6D0;stroke-width:2;stroke-miterlimit:10;}
	.st15{fill:none;stroke:#949FB0;stroke-width:6;stroke-miterlimit:10;}
	.st16{fill:url(#SVGID_4_);}
	.st17{fill:url(#SVGID_5_);}
	.st18{fill:url(#SVGID_6_);}
	.st19{fill:#4A3223;}
	.st20{fill:#8F6D5A;}
	.st21{fill:#997761;}
	.st22{fill:url(#SVGID_7_);}
	.st23{fill:#DCDEE2;}
	.st24{fill:#56331D;}
	.st25{fill:#515F79;}
	.st26{fill:#6C798C;}
	.st27{fill:#7B8397;}
	.st28{fill:#8690A1;}
	.st29{fill:url(#SVGID_8_);}
	.st30{fill:#69798D;}
	.st31{fill:#9FA9B7;}
	.st32{fill:#3F5271;}
	.st33{fill:url(#SVGID_9_);}
	.st34{fill:url(#SVGID_10_);}
	.st35{opacity:0.29;fill:#B0B7C2;}
	.st36{fill:url(#SVGID_11_);}
	.st37{fill:#E9BE99;}
	.st38{fill:#20385B;}
	.st39{opacity:0.1;fill:url(#SVGID_12_);}
	.st40{fill:none;stroke:#A2ACBA;stroke-width:2.5;stroke-miterlimit:10;stroke-dasharray:9.9582;}
	.st41{fill:#F3F4F6;}
	.st42{fill:url(#SVGID_13_);}
	.st43{opacity:7.000000e-02;fill:url(#SVGID_14_);}
	.st44{opacity:0.1;fill:url(#SVGID_15_);}
	.st45{fill:#B28E7C;}
	.st46{fill:#BFC6D0;}
	.st47{fill:#9F7F68;}
	.st48{fill:url(#SVGID_16_);}
	.st49{fill:url(#SVGID_17_);}
	.st50{fill:url(#SVGID_18_);}
	.st51{fill:#F4E0CD;}
	.st52{fill:url(#SVGID_19_);}
	.st53{fill:url(#SVGID_20_);}
	.st54{fill:#E9CAC5;}
	.st55{fill:#041D45;}
	.st56{fill:url(#SVGID_21_);}
	.st57{fill:url(#SVGID_22_);}
	.st58{fill:url(#SVGID_23_);}
</style>
<path class="st0" d="M160.8,222.8c0.3,0.4,1.5,2.1,3.2,2.2c0.9,0.1,1.6-0.3,2.5-0.7c1.3-0.6,2.2-1.3,2.8-1.7l3,2
	c0.2,0.2,0.5,0.2,0.7,0c0.3-0.2,0.4-0.8,0.1-1.1l-2.6-2.4c-0.2-0.2-0.4-0.3-0.8-0.3l-3.4-0.1l-4.8-0.1L160.8,222.8z"/>
<path class="st1" d="M107.1,220.4c3.6,1.3,8.3,2.7,13.9,3.1c2.9,0.2,5.6,0.1,7.8-0.1l0.5-3.1c-1.1-0.3-2.7-0.7-4.7-1.3
	c-3.8-1.3-5.2-2.1-8.2-3.1c-1.4-0.5-3.7-0.9-6.4-1.3c-1.5-1.3-3.1-2.6-4.7-3.9c-4.8-4-9.7-7.6-14.5-10.9c-0.4-0.4-1.1-0.2-1.5,0.3
	l-3.8,5.5L107.1,220.4z"/>
<linearGradient id="SVGID_1_" gradientUnits="userSpaceOnUse" x1="140.3358" y1="328.6285" x2="320.5889" y2="328.6285" gradientTransform="matrix(1 0 0 1 -21.4984 0)">
	<stop  offset="0" style="stop-color:#081E42"/>
	<stop  offset="1" style="stop-color:#081E42;stop-opacity:0.1"/>
</linearGradient>
<ellipse class="st2" cx="209" cy="328.6" rx="90.1" ry="14.6"/>
<g>
	<g>
		<polygon class="st3" points="386.3,252.9 363,259.4 356.5,236.1 		"/>
	</g>
	<polygon class="st4" points="331.4,222.1 336.1,238.6 341.9,228 	"/>
	
		<rect x="366.4" y="219.5" transform="matrix(0.9627 -0.2707 0.2707 0.9627 -47.1563 109.2244)" class="st5" width="12.1" height="12.1"/>
	<polygon class="st6" points="384.5,246.1 396.3,225 379.8,229.6 	"/>
	<polygon class="st7" points="365.1,221.3 356.7,236.2 368.4,232.9 	"/>
	<polygon class="st8" points="360.1,248 345.2,239.6 341.9,228 356.8,236.3 	"/>
	<polygon class="st9" points="386.5,253.1 379.9,229.8 356.6,236.4 	"/>
</g>
<linearGradient id="SVGID_2_" gradientUnits="userSpaceOnUse" x1="133.7754" y1="329.0104" x2="209.7202" y2="329.0104" gradientTransform="matrix(1 0 0 1 182.0093 0)">
	<stop  offset="0" style="stop-color:#081E42"/>
	<stop  offset="1" style="stop-color:#081E42;stop-opacity:0.1"/>
</linearGradient>
<ellipse class="st10" cx="353.8" cy="329" rx="38" ry="6.9"/>
<linearGradient id="SVGID_3_" gradientUnits="userSpaceOnUse" x1="-129.7742" y1="329.0201" x2="-75.5368" y2="329.0201" gradientTransform="matrix(1 0 0 1 182.0093 0)">
	<stop  offset="0" style="stop-color:#081E42"/>
	<stop  offset="1" style="stop-color:#081E42;stop-opacity:0.1"/>
</linearGradient>
<ellipse class="st11" cx="79.4" cy="329" rx="27.1" ry="4.9"/>
<g>
	<rect x="183.6" y="262.9" class="st5" width="63.9" height="63.9"/>
	<g>
		<g>
			<polygon class="st3" points="260.7,262.9 170.3,172.5 80,262.9 			"/>
		</g>
		<polygon class="st4" points="305.9,217.7 215.5,217.7 260.7,172.5 		"/>
		<polygon class="st7" points="260.7,172.5 170.3,172.5 215.5,217.7 		"/>
		<polygon class="st8" points="351.1,262.9 260.7,262.9 215.5,217.7 305.9,217.7 		"/>
	</g>
	<polygon class="st12" points="125.1,172.5 215.5,82.1 305.9,172.5 	"/>
</g>
<g>
	<line class="st13" x1="269.2" y1="101.4" x2="305.4" y2="329.2"/>
	<line class="st13" x1="300.5" y1="101.4" x2="336.7" y2="329.2"/>
	<line class="st13" x1="272.8" y1="116.5" x2="301.8" y2="116.5"/>
	<line class="st13" x1="276" y1="136.6" x2="305" y2="136.6"/>
	<line class="st13" x1="279.2" y1="156.7" x2="308.3" y2="156.7"/>
	<line class="st13" x1="282.4" y1="176.8" x2="311.5" y2="176.8"/>
	<line class="st13" x1="285.7" y1="196.9" x2="314.7" y2="196.9"/>
	<line class="st13" x1="288.9" y1="217" x2="318" y2="217"/>
	<line class="st13" x1="292.1" y1="237.1" x2="321.2" y2="237.1"/>
	<line class="st13" x1="295.4" y1="257.2" x2="324.4" y2="257.2"/>
	<line class="st13" x1="298.6" y1="277.3" x2="327.6" y2="277.3"/>
	<line class="st13" x1="301.8" y1="297.4" x2="330.9" y2="297.4"/>
	<line class="st13" x1="305" y1="317.4" x2="334.1" y2="317.4"/>
</g>
<g>
	<line class="st14" x1="50.1" y1="265" x2="40.6" y2="329.2"/>
	<line class="st14" x1="71.3" y1="265" x2="80.7" y2="329.2"/>
	<line class="st14" x1="77" y1="310.1" x2="44.3" y2="310.1"/>
	<line class="st14" x1="60.7" y1="329.6" x2="60.7" y2="268.5"/>
	<line class="st15" x1="77.5" y1="265.8" x2="43.9" y2="265.8"/>
</g>
<linearGradient id="SVGID_4_" gradientUnits="userSpaceOnUse" x1="7102.7969" y1="-7034.7236" x2="7069.4482" y2="-7095.5039" gradientTransform="matrix(-0.3634 0.9316 0.9316 0.3634 9434.8867 -3976.8977)">
	<stop  offset="0" style="stop-color:#081E42"/>
	<stop  offset="1" style="stop-color:#5E6C81"/>
</linearGradient>
<path class="st16" d="M303.6,50c-2,0.1-3.4,1.7-4.6,3.3c-6.6,9-6.2,8.8-7.6,10.5c-3.3,4-6.6,6.7-8.8,8.4c-8.1-1.8-16.2-3.6-24.3-5.4
	c-1.1,3.8-0.7,2.3-1.8,6.1c4.9,1.7,10.2,3.4,15.9,5c4.6,1.2,9.1,2.2,13.3,3c3.3-1.6,7.1-3.8,11-6.8c3.9-2.9,7.2-6.3,10.6-9.8
	c0.2-0.2,0.4-0.4,0.5-0.7c0.1-0.2,0-0.5,0.1-0.7c0.8-2,0.3-4.1-0.1-6.1c-0.4-1.6,0.4-3.3-0.3-4.7c-0.4-0.9-1.3-1.6-2.3-1.9
	C304.5,50,304.1,49.9,303.6,50z"/>
<polygon class="st6" points="153.7,42.8 275.8,80.5 233.6,0.6 "/>
<g>
	<g>
		<path class="st1" d="M293.3,172.5c-2.2,0.2-6.2-0.5-8.5-0.3c0-1.2,1.4-8.5,1.3-9.7c1.2-0.2,2.2,1.1,3.4,0.8
			c1.1-0.2,2.2-0.5,3.2-0.7c-0.2,1.1-0.4,2.3-0.6,3.5C292.2,167.4,293.4,171.4,293.3,172.5z"/>
		<path class="st1" d="M343.2,158.9c0.6,0.9,1.2,2.8,0.5,3.6c-1.8,2.2-7.5,5.5-6.8,1.9c-0.8-1.3-1.3-5.1-1.8-6.3
			c-0.3-0.8-0.6-1.5-0.9-2.2c0.8-0.5,1.8-1,3-1.5c1.1-0.4,2.1-0.7,2.9-0.8c0.2,1,0.6,2.1,1.2,3.3
			C341.8,157.7,342.8,158.3,343.2,158.9z"/>
		<path class="st1" d="M335.4,177.5c0,0-1.3-0.6-0.6-2.8c0.7-2.2,1.7-3.8,2-4.9c0.6-2-0.6-6.1-0.6-6.1s1.3,0,1.8,0.8
			c0.4,0.8,1.6-0.3,3.5-3.7c1.9-3.4,0.2-3.4,0.2-3.4s1.5-0.4,5.5,1.7c1.6,0.9-2,7-3.3,8.4l-1-0.3
			C342.7,167.3,340.2,174.5,335.4,177.5z"/>
		
			<linearGradient id="SVGID_5_" gradientUnits="userSpaceOnUse" x1="6031.5137" y1="118.6488" x2="5883.0586" y2="-292.8293" gradientTransform="matrix(-0.9997 2.463021e-02 2.463021e-02 0.9997 6326.1333 -75.2728)">
			<stop  offset="0" style="stop-color:#081E42"/>
			<stop  offset="1" style="stop-color:#5E6C81"/>
		</linearGradient>
		<path class="st17" d="M319.2,80.8c2.4,6.4,4.7,13.5,6.7,21.1c1.3,4.9,2.3,9.6,3.2,14.2c1.5,3.4,2.9,7,4.3,10.6
			c4.1,10.8,6.5,19.3,9,29.3c-0.9,0.4-2,0.9-3.3,1.3c-1.5,0.5-2.9,0.8-4.1,1.1c-6.3-12.9-12-24.2-17.7-38.6
			c-4.5-11.5-9.1-22.9-13.6-34.4C309,83.8,314.1,82.3,319.2,80.8z"/>
		
			<linearGradient id="SVGID_6_" gradientUnits="userSpaceOnUse" x1="-2285.6455" y1="434.4203" x2="-2434.1003" y2="22.9423" gradientTransform="matrix(0.9991 4.342088e-02 -4.342088e-02 0.9991 2633.373 -109.6218)">
			<stop  offset="0" style="stop-color:#081E42"/>
			<stop  offset="1" style="stop-color:#5E6C81"/>
		</linearGradient>
		<path class="st18" d="M313.4,87.4c-3.8,11.8-9.4,24-13.2,35.8c-2.2,13.7-4.3,27.4-6.5,41c-0.5,0.2-2,0.7-3.8,0.5
			c-2.1-0.3-3.4-1.4-3.7-1.7c0.6-13.2-0.1-28.1,2.3-42.7c2-12.2,4.1-24.4,6.1-36.5C299.8,84.8,308.2,86.4,313.4,87.4z"/>
		<path class="st19" d="M285.3,32c-1-0.7-2.4-1.9-2.2-2.8c0.2-0.8,1.5-0.8,4.2-1.8c3.9-1.4,4.1-2.3,6.3-2.4c0.7,0,2.9-0.2,5,1.1
			c2.9,1.9,3.4,5.6,3.5,6.7c0.5,4.4-1.8,7.6-2.5,8.5c-0.5,0.7-1,1.5-1.6,2.2c-3.4-2.6-6.7-5.2-10.1-7.9L285.3,32z"/>
		<path class="st20" d="M299.3,47.1c-2.7,1.1-5.4,2.2-8.1,3.2c0-1.2-0.1-3-0.7-5c-0.6-2-1.4-3.5-2.1-4.4c1.6-0.7,3.2-1.5,4.8-2.2
			c0.2,0.3,0.4,0.6,0.8,1.1c0.5,0.7,0.8,1,1.1,1.1c0.8,0.3,1.7-0.4,2-0.7C297.9,42.6,298.6,44.8,299.3,47.1z"/>
		<path class="st21" d="M285.3,32c0,1,0,2.1-0.1,3.1c-0.9,1.2-1.7,2.3-2.6,3.5c0.5,0.4,1,0.8,1.4,1.1c0.6,1.8,1.2,3.6,1.8,5.4
			c0.9,0.2,2.3,0.5,4.1,0.4c0.5,0,0.7-0.1,4.9-1.6c1.8-0.6,2.7-1,2.9-1.6c0.2-0.8-0.2-1.7-0.7-2.2c-0.5-0.5-0.8-0.4-1.4-0.9
			c-0.9-0.8-0.5-1.6-1.2-2.4c-0.7-0.8-1.3-0.3-2.9-1c-1.8-0.8-1.9-1.8-3.7-2.8C286.8,32.3,285.9,32,285.3,32z"/>
		<path class="st21" d="M247.6,32.4c0,0-4-3.7-4.2-5.1c-0.2-1.4,0.3-2.3-0.2-2.6c-0.5-0.2-1.2,1.8-1.5,1.9c-0.4,0.1-0.7-0.3-1,0.3
			c-0.3,0.6-0.7,1.2-0.8,2s0.7,4.3,1.5,5.3c0.8,1,2.3,3.2,3.7,3.6c1.3,0.3,2.7-4.3,2.7-4.3L247.6,32.4z"/>
		<path class="st21" d="M248.8,28.7c0.3,0.9,0.3,1.9,0,2.8c-0.4,1.5-1.7,6.3-3.2,6.2c-0.7-0.1-1.2-1.2-1.4-1.8
			c-0.3-1.2,1.1-2.1,1.1-3.4c0-0.3-0.1-0.5,0-0.8c0-0.8,0-1.2,0.2-1.3c0.2-0.1,0.8,0.7,1.3,0.6c0.9-0.1,0.9-3.1,1.5-3.1
			C248.5,27.7,248.7,28.4,248.8,28.7z"/>
		
			<linearGradient id="SVGID_7_" gradientUnits="userSpaceOnUse" x1="-2101.074" y1="-770.9042" x2="-2249.5288" y2="-1182.3823" gradientTransform="matrix(0.966 -0.2586 0.2586 0.966 2643.8774 443.8379)">
			<stop  offset="0" style="stop-color:#081E42"/>
			<stop  offset="1" style="stop-color:#5E6C81"/>
		</linearGradient>
		<path class="st22" d="M262.3,62c3.6,0.7,7.9,1.2,12.8,1.3c3.9,0,7.4-0.3,10.5-0.7c0.5,1.4,1.1,2.8,1.6,4.2c0,0,0.6,1.7,1.1,3.3
			c0.9,2.7,2.6,9.7,4.3,19.2c4.5,0,11-0.7,18.2-3.7c3.4-1.4,6.3-3.1,8.6-4.6c-3-5-4.3-9.3-5-12.3c-1-4.7-1.6-11.4-3.8-16.7
			c-0.8-1.9-2.2-4.8-4.7-5.3c0,0,0,0-0.1,0c0,0-0.4-0.1-1.1-0.2c0,0-1.2-0.2-2.4-0.3c-5-0.4-12.8,1.9-12.8,1.9
			c-10.7,3.2-10.3,3.2-12.4,3.7c-5,1.1-9.3,1.3-12.1,1.3c-5.4-6.3-10.7-12.7-16.1-19c-3.2,2.4-1.9,1.4-5.1,3.8
			c2.8,4.3,6,8.9,9.7,13.6C256.5,55.3,259.5,58.8,262.3,62z"/>
		<path class="st1" d="M273.5,171.7c0,0,0-1.4,2.2-1.5c2.2-0.1,3.5,0,4.6,0c1.9-0.1,6.2-2.1,6.2-2.1s0.5,1.1-0.5,2
			c-0.7,0.6,0.6,1.4,4.2,2.1c3.6,0.7,3-0.8,3-0.8s0.8,3.8,0.2,5.4s-6.8,0.3-8.5-0.5l0-1C284.8,175.3,277.6,175.2,273.5,171.7z"/>
		<path class="st24" d="M284,39.7c-0.1,0.1-0.2,0.4-0.2,0.8c0,0.4,0.2,0.7,0.3,0.8c0.4,0,0.9,0,1.5-0.1c0.4-0.1,0.8-0.2,1.1-0.3
			c0.1,0.3,0.2,0.7,0.3,1.1c0.3,1.2,0.3,1.4,0.2,1.5c-0.3,0.4-1.2,0.2-1.8-0.3c-0.2-0.2-0.4-0.5-0.4-0.6c-0.1,0.2-0.4,0.8-0.3,1.6
			c0.1,1,0.8,1.6,1,1.7c0.8,0.4,1.8,0.7,2.9,0.5c0.2,0,0.3-0.1,0.3-0.1c4.6-1.6,4.9-1.7,5.1-1.9c2.2-1.8-1.1-9.5-1.2-9.8
			c-1.2-0.2-2.3-0.4-3.5-0.6c0.2,0.1,1.6,1.2,1.6,3c0,0.3,0,1.8-1,2.4c-1,0.6-2.1-0.3-4.4-0.1C285,39.4,284.4,39.6,284,39.7z"/>
	</g>
</g>
<g>
	<path class="st8" d="M88.8,193.2c-3.5,0-6.4-2.9-6.4-6.4c0-3.5,2.9-6.4,6.4-6.4c3.5,0,6.4,2.9,6.4,6.4
		C95.2,190.3,92.3,193.2,88.8,193.2z"/>
	<path class="st25" d="M45.5,258.2c8.1,1.5,16.2,3,24.3,4.7c0.6,0,3.8,0,5.8-2.1c1.4-1.5,1.6-3.3,1.9-4.4c0.4-2.5-0.3-4.9-0.5-6.2
		c-0.1-0.4-0.1-0.6-0.3-0.8c-2.3-7.9-3.5-10.7-4.7-14.8c-1.9-6.7-1-6.3-2.3-9.8c-1.4-3.6-4.2-8.2-9.9-12.7c-0.9,1-2,2.5-3.1,4.5
		c-0.9,1.5-1.9,3.4-2.3,5.8c-0.3,1.3-0.4,3,0.1,6.2c0.3,1.6,1.1,6.3,4.5,13c1.1,2.3,2.9,5.3,5.4,8.7c-3-1-6.3-2-9.7-3
		c-2.6-0.8-5-1.4-7.5-1.9C46.6,249.7,46.1,253.9,45.5,258.2z"/>
	<path class="st26" d="M59.8,212c-0.9,1-2.1,2.5-3.1,4.5c-1.4,2.6-3.1,5.9-2.3,9.9c0.1,0.6,0.6,4.5,4.2,6.5c1,0.6,2,1.1,3.1,1.6
		c0,0,2.1,0.9,4.8,1.5c5.4,1.1,13.7,0.6,14.2,0.5c-1.8,1.4-3.6,3-5.7,4.8c-2.5,2.4-4.8,4.8-6.7,6.9c3.5,2.4,7,4.9,10.7,7.3
		c2.8-2.6,5.5-5.5,8.4-8.8c3.4-3.8,6.3-7.5,8.7-11.1c0.3-0.6,0.8-2.3,0.1-4c-0.9-3.3-4.2-4.5-4.5-4.7c-4-1.3-7.9-2.6-12-3.9
		c-3-0.9-5.9-1.9-8.9-2.8c-2.1-1.3-4.3-2.9-6.5-4.7C62.7,214.7,61.2,213.3,59.8,212z"/>
	<path class="st27" d="M87,216.1l-15.7,4.7c-1.8-1-3.6-2.3-5.5-3.6c-2.3-1.8-4.3-3.4-5.9-5c5.2-5.2,9.4-8.7,12.3-10.9
		c2.1-1.6,3.5-2.4,6-4.2c0,0,4.5-2.9,7.2-3.5c0.1,0,1.8-0.5,1.8-0.5l3.5,8.3c0.4,0.8,0.4,1.5,0.4,2.4l-1.3,9.1
		c-0.1,1.3-0.9,2.4-2.1,3.1C87.5,215.9,87.3,216.1,87,216.1z"/>
	<path class="st0" d="M89.9,202.9c0.1-0.3,0.3-0.6,0.3-1c0.1-0.5,0.1-0.9,0-1.3c0.4-1,1.3-2.5,2.8-3.8c0.5-0.4,1-0.8,1.5-1l-3-4.5
		l-4.3,1.9l0.6,2.4c0.5,1.5,0.6,3.1,0.8,4.7c0,0.3,0.1,0.6,0.1,0.9C89.1,201.9,89.7,202.5,89.9,202.9z"/>
	<path class="st8" d="M89,262.9c0,0-0.8-1.8-3-2.8c-2.1-0.9-3.4,0-6-1.1c-0.8-0.4-2.5-1.1-2.5-2.3c0-0.6,0.5-1.1,0.8-1.5
		c-1.8-1.3-3.5-2.4-5.2-3.6c0,0-1.5,1.5-2.4,4.8c-0.9,3.3-0.8,6.4-0.8,6.4L89,262.9z"/>
	<path class="st8" d="M46.9,248.7c-0.8-0.4-1.8-0.8-3.1-0.9c-1.5-0.3-2.9-0.1-3.8,0c0,4.2,0,8.3,0.1,12.6c0,0.1-0.1,1.1,0.5,1.8
		c0.5,0.6,1.1,0.6,1.4,0.8c1.9,0,3.9,0,5.8,0c-0.1-0.3-0.4-0.8-0.6-1.1c-1.1-1.4-2.6-1.1-3.1-2.4c-0.3-0.6-0.1-1.3-0.1-1.5
		c0.1-0.6,0.5-1.1,0.8-1.4c0.3-0.3,0.6-0.8,1.3-1.1C46.2,253.1,46.5,250.8,46.9,248.7z"/>
	<path class="st0" d="M91.5,191.5l3.6,5.4c0.5,0.8,1.3,1.3,2.1,1.4c0.8,0.1,1.5,0,2.3-0.3l2.9-1.5l0.5,0.9c0.1,0.4,0.6,0.3,0.8,0
		l0.9-2.3l1-1c1.3-1.4,2.1-2.9,2.6-4.7c0.8-2.3,0.5-4.8-0.8-6.8c-1.4-2.3-3.6-3.6-6.3-3.9h-0.5c-0.6,0-1.1,0-1.6,0.3
		c-3,1-5.2,3.5-5.5,6.7l-0.3,1.8L91.5,191.5z"/>
	<path class="st8" d="M94.2,181c-1.1,1.8-0.6,3.3-1.9,7.3c-0.5,1.4-1,2.5-1.3,3.1c1.9-0.3,3.3-1,4.2-1.4c0.9-0.5,1.5-0.9,2.1-1.5
		c1.4-1.5,1.5-3,2.6-3.1c0.1,0,0.5-0.1,0.8,0.3c0.8,0.8-1.1,2.5-0.6,3.9c0.6,1.4,3.1,1.4,4.4,1.5c1.5,0,3,0.1,4-0.9
		c1-1.1,0.9-2.9,0.8-3.6c-0.5-3.5-3.6-8.6-8.6-8.6C98.3,177.7,95.6,178.8,94.2,181z"/>
</g>
<g>
	<path class="st28" d="M87.3,193l2.1,12.7l4.2,14.1c1.4,0.5,3.6,1.3,6.3,2.4c4.9,2.3,6.8,4,11.7,6.2c2.5,1.1,4.5,1.9,6,2.4
		c-0.6,1-1.3,2.1-1.8,3.1c-4.5-1.4-9.1-2.6-13.6-4c0,0-8.3-1.9-12.8-6.3c-5.2-5-7.2-11.6-8.7-16.4c-0.5-1.8-0.9-3.3-1.1-4.3
		c-0.1-0.6-0.5-3.5,1.5-6.3C83.4,193.6,86.8,193.2,87.3,193z"/>
	<path class="st0" d="M116.2,233.4c0.4,0.5,1.6,2.5,3.6,2.8c1,0.1,1.9-0.3,3-0.6c1.5-0.6,2.6-1.4,3.4-1.9l3.4,2.5
		c0.3,0.3,0.6,0.3,0.9,0c0.4-0.3,0.5-0.9,0.1-1.3l-2.9-3c-0.3-0.3-0.5-0.4-0.9-0.4l-4-0.4l-5.7-0.4L116.2,233.4z"/>
	<path class="st0" d="M128.9,235.1l1.4,1.6c0.3,0.3,0.3,0.8,0,1.1c-0.3,0.4-0.8,0.4-1.1,0.1l-4.3-3l-3.4,0.1l1.4-2h3.4L128.9,235.1z
		"/>
	<path class="st0" d="M129,239.5c-0.3,0.3-0.8,0.3-1.1,0c-0.8-0.9-1.4-1.6-2.1-2.5c-1.4-0.6-2.6-1.4-4-2l1-1.3l4.2,1.9l2.1,2.8
		C129.4,238.7,129.4,239.2,129,239.5z"/>
	<path class="st0" d="M126,240c-0.3,0.1-0.6,0-0.8-0.3l-1.3-2.4c-0.6-0.5-1.4-1-2-1.6c0.3-0.4,0.6-0.6,0.9-1c0.9,0.6,1.8,1.4,2.6,2
		l0.8,2.5C126.4,239.6,126.3,239.8,126,240z"/>
</g>
<g>
	<g>
		<g>
			<g>
				<g>
					<g>
						<g>
							<g>
								<g>
									<g>
										
											<linearGradient id="SVGID_8_" gradientUnits="userSpaceOnUse" x1="11758.1553" y1="1222.3623" x2="11763.1094" y2="1222.3623" gradientTransform="matrix(-0.9944 -0.1061 -0.1061 0.9944 12218.7812 350.5088)">
											<stop  offset="1.608375e-02" style="stop-color:#ECB4AA"/>
											<stop  offset="0.2485" style="stop-color:#E5B09C"/>
											<stop  offset="0.5376" style="stop-color:#E0AD94"/>
											<stop  offset="1" style="stop-color:#DFAC91"/>
										</linearGradient>
										<path class="st29" d="M397.5,313.9c0,0.1-0.1,4.1-0.1,4.1l-0.6,5.5l-3.7-3.4l-0.2-6.3L397.5,313.9z"/>
										<g>
											<path class="st30" d="M398,318.4c0,0,0.2,3.4,0.8,4.2c0.6,0.8,2.1,2.5,1.9,3.8l0.6,1.3c0,0-9,5-14.9,3.2
												c0,0-0.5-0.4-0.2-0.6c0,0,0.2-1,0.6-1.4c0,0,2.4-1.5,3.6-2c0,0,2-3.1,2.3-7.5C392.6,319.4,396,317.7,398,318.4z"/>
											<path class="st31" d="M400.6,326.5c-1.7,0.7-4.9,2-8.3,3.1c-3.2,1.1-5.2,0.8-6.2,0.5c0,0.1,0,0.2,0,0.2
												c-0.4,0.2,0.2,0.6,0.2,0.6c5.9,1.8,14.9-3.2,14.9-3.2L400.6,326.5z"/>
											<path class="st32" d="M392.6,319.4c-0.3,4.4-2.3,7.5-2.3,7.5c-1.1,0.5-3.4,1.9-3.6,2c0.6,0,1.6,0,2.8-0.3l1.2-0.3
												c0,0-0.7-0.9,0-1.3c0.7-0.4,2.7-3.5,2.5-7.8C392.8,319.3,392.6,319.4,392.6,319.4z"/>
										</g>
									</g>
								</g>
							</g>
						</g>
					</g>
				</g>
			</g>
		</g>
		
			<linearGradient id="SVGID_9_" gradientUnits="userSpaceOnUse" x1="9045.9463" y1="9173.0752" x2="9057.9873" y2="9173.0752" gradientTransform="matrix(-0.6845 -0.729 -0.729 0.6845 13302.3242 633.8063)">
			<stop  offset="1.608375e-02" style="stop-color:#ECB4AA"/>
			<stop  offset="0.2485" style="stop-color:#E5B09C"/>
			<stop  offset="0.5376" style="stop-color:#E0AD94"/>
			<stop  offset="1" style="stop-color:#DFAC91"/>
		</linearGradient>
		<polygon class="st33" points="418.6,310 420.1,312.6 422.5,315.7 422,319.1 418.5,316.4 413.7,310.3 		"/>
		<g>
			<path class="st30" d="M420.3,311.2c0,0,1.6,3,2.4,3.4c0.9,0.5,2.9,1.4,3.3,2.6l1.1,1c0,0-5.9,8.3-12,9.2c0,0-0.7-0.1-0.4-0.5
				c0,0-0.3-1-0.1-1.5c0,0,1.6-2.4,2.4-3.3c0,0,0.5-3.6-1.1-7.7C415.9,314.4,418.2,311.4,420.3,311.2z"/>
			<path class="st31" d="M426.1,317.3c-1.2,1.3-3.6,3.9-6.1,6.3c-2.4,2.3-4.3,2.9-5.3,3.1c0,0.1,0.1,0.2,0.1,0.2
				c-0.2,0.4,0.4,0.5,0.4,0.5c6-0.9,12-9.2,12-9.2L426.1,317.3z"/>
			<path class="st32" d="M415.9,314.4c1.6,4.1,1.1,7.7,1.1,7.7c-0.8,0.9-2.2,3.1-2.4,3.3c0.6-0.2,1.5-0.7,2.3-1.4l0.9-0.8
				c0,0-1-0.5-0.6-1.2c0.5-0.6,0.9-4.2-1-8C416.1,314.2,415.9,314.4,415.9,314.4z"/>
		</g>
		
			<linearGradient id="SVGID_10_" gradientUnits="userSpaceOnUse" x1="11466.6777" y1="288.0929" x2="11426.2021" y2="299.7128" gradientTransform="matrix(-1 -2.449937e-03 -2.449937e-03 1 11848.6738 14.4194)">
			<stop  offset="1.309754e-02" style="stop-color:#515F79"/>
			<stop  offset="0.9697" style="stop-color:#344563"/>
		</linearGradient>
		<path class="st34" d="M419.7,309.5c-1.5-3.3-2.6-14.2-3.5-17.4c-0.8-3.1-2.7-9.7-3.7-12.7c-0.9-2.8,3.7-14.9,3.2-23.1
			c-0.2,0.2-3-1-3.2-0.8c-0.9,1.3-4.1-3.5-5-2.1c-3.8,6.3-11.7,11.7-3.5,33.4c5.9,13.8,10.6,26.5,10.6,26.5
			C415.9,313,420,310,419.7,309.5z"/>
		<path class="st35" d="M418.9,307c0.3,1,0.5,1.9,0.8,2.5c0.3,0.6-3.8,3.5-5.1,3.8c0,0-0.4-1-1.1-2.8
			C415.5,309.5,417.7,307.8,418.9,307z"/>
		
			<linearGradient id="SVGID_11_" gradientUnits="userSpaceOnUse" x1="11494.7979" y1="271.1837" x2="11437.8604" y2="301.3955" gradientTransform="matrix(-1 -2.449937e-03 -2.449937e-03 1 11848.6738 14.4194)">
			<stop  offset="1.309754e-02" style="stop-color:#515F79"/>
			<stop  offset="0.9697" style="stop-color:#344563"/>
		</linearGradient>
		<path class="st36" d="M406.7,246.2c-0.1-0.1-6.9,3.6-10,3.5c-1.4,0-2.9,0-4.4,0.3c-1,0.2-2.1,0.7-2.4,1.9c0,0.2,0.6,2.4,0.7,2.5
			c-0.7,2.9-4.6,23.1-4,31.9c0.5,7.4,5,31.4,5,31.4c1.3,0.3,6.8-0.9,6.7-1.5c-0.5-3.7-0.4-14.1-0.3-17.5c0.1-3.3-0.5-7.9-0.1-11.2
			C399.6,272.5,415.7,256,406.7,246.2z"/>
		<path class="st35" d="M398.3,316.2c0.1,0.7-5.5,1.8-6.7,1.5c0,0-0.2-1.1-0.5-2.9c2.5,0,5.5-0.6,7.1-1
			C398.2,314.8,398.2,315.6,398.3,316.2z"/>
		<path class="st37" d="M371.5,225.9c0-0.7-1.1-2.5-1.1-2.5c0.1-0.4,0.2-1.6-0.4-1.7c-0.3,0-0.6,0.2-0.8,0.4
			c-0.1,0.2-0.3,1.2-0.3,1.2l-1.4,0.9c-0.8-0.1-0.8-1-0.3-1.4c0.5-0.4,0.1-1,0.1-1c-1-0.4-1.8,0.3-1.8,0.3c-0.1,0.4-1.4,0.4-1.6,1
			c-0.8,2.1,0.1,4.4,2,5.6l2.9,1.6C371.6,228.2,371.5,226.6,371.5,225.9z"/>
		<path class="st37" d="M392.5,195.4c0,0,0.1,1.6,0.5,3c0.4,1.4-1.3,2.1-0.7,3.7c0.7,1.6,1.7,3.2,1.6,4.2c-0.1,1,1.7,1.6,3.2,1.7
			l-0.8,3.8c0,0,2.1,1,4.7,1.6c2.4,0.5,3.3-1,3.4-3.4l0.5-7.4l-3-6.5l-3.8-1.4L392.5,195.4z"/>
		<path class="st37" d="M378.4,229.2c4.8-6.7,8.7-11.9,10.7-14.1c1.7-1.9,4.9-0.8,5,1.7c0.2,4.6-3.5,9.9-3.5,9.9s-6.8,11.5-11.1,11
			c-4.4-0.5-11.6-8.2-11.6-8.2l3.1-3L378.4,229.2z"/>
		<path class="st38" d="M398.7,187.8C398.7,187.8,398.7,187.8,398.7,187.8c-1.3,0.2-2.5,0.6-3.5,1.2c-2,1.3-4.6,3.6-3,6.9
			c0.2,0.4,2.4,1.4,3.8,1.6c0,0-0.8,2.2,0.2,2.2c0,0,0.8-1.7,1.3-1.8c2.5-0.7,2.3,1.9,2.4,2.7c0.3,3-0.1,6.1-1.1,9
			c3.8,1.1,7.8,1.4,11.7,1C414.9,189.5,404.2,187,398.7,187.8z"/>
		<path class="st25" d="M382.5,223.1c2.8-5.4,6.3-8.7,9-9.7c1.9-1.5,4.1-2.7,6.5-3.5l0.8-0.3c0,0,1.5,0.5,6.9,1.1
			c2.3,0.3,6.3,4.7,7.8,15.4c1.8,12.3,4.2,37.2,4.2,37.2c-11.1,2.7-25,3.9-30.3,1.6c-1.6-0.7-0.2-24.5,0.1-28
			c0.2-2.9,0.1-5.1,0.1-7.5C381.1,226.5,382.5,223.1,382.5,223.1z"/>
	</g>
</g>
<linearGradient id="SVGID_12_" gradientUnits="userSpaceOnUse" x1="524.6666" y1="4668.5586" x2="599.7444" y2="4668.5586" gradientTransform="matrix(1 0 0 -1 -119.293 4997.0425)">
	<stop  offset="0" style="stop-color:#081E42"/>
	<stop  offset="1" style="stop-color:#081E42;stop-opacity:0.1"/>
</linearGradient>
<ellipse class="st39" cx="442.9" cy="328.5" rx="37.5" ry="6.8"/>
<path class="st40" d="M322.9,227.8c-9.1,2.3-62.2,22.7-65.4,97.8"/>
<path class="st40" d="M324.4,231.4c-9.8,5.8-56.5,32.6-54.2,103.4"/>
<path class="st40" d="M326.2,235.1c-5.5,6-44.6,30.7-43.6,93.6"/>
<polygon class="st41" points="0,82.4 74.5,82.4 37.2,45.2 "/>
<polygon class="st41" points="416.4,82.4 473.4,82.4 444.9,54 "/>
<polygon class="st41" points="63.6,82.4 103.2,82.4 83.4,62.6 "/>
<polygon class="st41" points="378.4,39.1 407.6,39.1 393,24.5 "/>
</svg>
